<svg version="1.1" xmlns="http://www.w3.org/2000/svg" viewBox="0 0 896.8311558376431 356.77288974401927" width="896.8311558376431" height="356.77288974401927">
  <!-- svg-source:excalidraw -->
  
  <defs>
    <style class="style-fonts">
      @font-face {
        font-family: "Virgil";
        src: url("https://excalidraw.com/Virgil.woff2");
      }
      @font-face {
        font-family: "Cascadia";
        src: url("https://excalidraw.com/Cascadia.woff2");
      }
      @font-face {
        font-family: "Assistant";
        src: url("https://excalidraw.com/Assistant-Regular.woff2");
      }
    </style>
    
  </defs>
  <rect x="0" y="0" width="896.8311558376431" height="356.77288974401927" fill="#ffffff"></rect><g stroke-linecap="round" transform="translate(10 153.23903090941985) rotate(0 78.05798063529073 17.80271383470017)"><path d="M8.9 0 C35.91 0.09, 66.72 -0.84, 147.21 0 M8.9 0 C59.87 0.25, 109.48 1.7, 147.21 0 M147.21 0 C152.21 -0.75, 155.96 3.14, 156.12 8.9 M147.21 0 C153.56 -1.28, 153.96 4.26, 156.12 8.9 M156.12 8.9 C154.93 14.48, 156.67 23.95, 156.12 26.7 M156.12 8.9 C155.52 16.09, 156.44 22.83, 156.12 26.7 M156.12 26.7 C157.52 34.13, 154.64 36.91, 147.21 35.61 M156.12 26.7 C153.85 34.29, 151.56 37.24, 147.21 35.61 M147.21 35.61 C103.3 34.07, 61.11 36.35, 8.9 35.61 M147.21 35.61 C117.69 35.83, 86.99 36.49, 8.9 35.61 M8.9 35.61 C4.8 35.67, 1.53 32.01, 0 26.7 M8.9 35.61 C3.85 37.66, 2.23 32.55, 0 26.7 M0 26.7 C-0.87 22.65, 1.64 17.63, 0 8.9 M0 26.7 C0.2 23.19, 0.32 18.72, 0 8.9 M0 8.9 C0.91 3.82, 2.62 -1.99, 8.9 0 M0 8.9 C-0.44 4.23, 1.55 -1.11, 8.9 0" stroke="#1e1e1e" stroke-width="2" fill="none"></path></g><g transform="translate(35.68802366507589 158.54174474412048) rotate(0 52.369956970214844 12.5)"><text x="52.369956970214844" y="0" font-family="Virgil, Segoe UI Emoji" font-size="20px" fill="#1e1e1e" text-anchor="middle" style="white-space: pre;" direction="ltr" dominant-baseline="text-before-edge">accelerate</text></g><g stroke-linecap="round" transform="translate(222.76588054964714 81.25653466780841) rotate(0 81.43284044714665 85)"><path d="M102.5 21.5 C114.21 33.13, 123.19 46.39, 142.37 64.5 M102.5 21.5 C113.29 34.26, 125.4 46.43, 142.37 64.5 M142.37 64.5 C163.39 85.33, 162.8 87.29, 142.37 107.5 M142.37 64.5 C163.96 84.97, 161.11 84.45, 142.37 107.5 M142.37 107.5 C132.56 120.35, 122.36 128.63, 102.5 148.5 M142.37 107.5 C131.81 117.29, 122.85 127.79, 102.5 148.5 M102.5 148.5 C81.61 171.99, 80.06 171.08, 61.5 148.5 M102.5 148.5 C82.75 171.44, 81.2 169.1, 61.5 148.5 M61.5 148.5 C46.83 135.1, 35.6 121.87, 20.5 107.5 M61.5 148.5 C50.5 137.79, 38.55 125.07, 20.5 107.5 M20.5 107.5 C-0.94 86.02, 1.48 87.73, 20.5 64.5 M20.5 107.5 C2.18 87.2, -2.24 86.84, 20.5 64.5 M20.5 64.5 C34.19 51.99, 48.49 37.42, 61.5 21.5 M20.5 64.5 C34.28 51.02, 46.2 36.19, 61.5 21.5 M61.5 21.5 C82.98 -1.73, 80.4 -1.13, 102.5 21.5 M61.5 21.5 C81.16 0.71, 81.89 -0.47, 102.5 21.5" stroke="#1e1e1e" stroke-width="2" fill="none"></path></g><g transform="translate(271.2323312907988 128.7565346678084) rotate(0 32.749969482421875 37.5)"><text x="32.749969482421875" y="0" font-family="Virgil, Segoe UI Emoji" font-size="20px" fill="#1e1e1e" text-anchor="middle" style="white-space: pre;" direction="ltr" dominant-baseline="text-before-edge">at </text><text x="32.749969482421875" y="25" font-family="Virgil, Segoe UI Emoji" font-size="20px" fill="#1e1e1e" text-anchor="middle" style="white-space: pre;" direction="ltr" dominant-baseline="text-before-edge">target</text><text x="32.749969482421875" y="50" font-family="Virgil, Segoe UI Emoji" font-size="20px" fill="#1e1e1e" text-anchor="middle" style="white-space: pre;" direction="ltr" dominant-baseline="text-before-edge">speed</text></g><g mask="url(#mask-n-mwEa_mNzvLNR9amvpMq)" stroke-linecap="round"><g transform="translate(252.73325529898693 216.7607513502635) rotate(0 -61.57699763827691 -9.720614000551905)"><path d="M0.75 0.2 C-8.33 -0.99, -33.94 -2.71, -54.63 -6.06 C-75.32 -9.41, -112.1 -17.75, -123.38 -19.91 M-0.31 -0.74 C-9.56 -1.3, -35.03 -2.01, -55.68 -5.03 C-76.34 -8.04, -113.28 -16.72, -124.26 -18.84" stroke="#1e1e1e" stroke-width="2" fill="none"></path></g><g transform="translate(252.73325529898693 216.7607513502635) rotate(0 -61.57699763827691 -9.720614000551905)"><path d="M-99.5 -22.32 C-106.28 -21.5, -115.38 -20.53, -124.26 -18.84 M-99.5 -22.32 C-106.67 -20.37, -113.27 -21.18, -124.26 -18.84" stroke="#1e1e1e" stroke-width="2" fill="none"></path></g><g transform="translate(252.73325529898693 216.7607513502635) rotate(0 -61.57699763827691 -9.720614000551905)"><path d="M-103.06 -5.59 C-108.97 -9.63, -117.03 -13.49, -124.26 -18.84 M-103.06 -5.59 C-109.43 -8.02, -115.1 -13.18, -124.26 -18.84" stroke="#1e1e1e" stroke-width="2" fill="none"></path></g></g><mask id="mask-n-mwEa_mNzvLNR9amvpMq"><rect x="0" y="0" fill="#fff" width="475.8872505755405" height="336.20197935136764"></rect><rect x="188.096567538395" y="199.16348106749774" fill="#000" width="20.41998291015625" height="25" opacity="1"></rect></mask><g transform="translate(188.096567538395 199.16348106749774) rotate(0 2.8829948114550916 7.742297016349767)"><text x="10.209991455078125" y="0" font-family="Virgil, Segoe UI Emoji" font-size="20px" fill="#1e1e1e" text-anchor="middle" style="white-space: pre;" direction="ltr" dominant-baseline="text-before-edge">no</text></g><g stroke-linecap="round"><g transform="translate(176.1863852786696 172.13556472575965) rotate(0 16.61229448095196 -1.3029304174206118)"><path d="M-0.01 -0.37 C5.48 -0.76, 27.78 -2, 33.35 -2.32 M-0.68 0.63 C4.71 0.07, 27.35 -2.5, 32.98 -3.14" stroke="#1e1e1e" stroke-width="2" fill="none"></path></g><g transform="translate(176.1863852786696 172.13556472575965) rotate(0 16.61229448095196 -1.3029304174206118)"><path d="M18.07 4.29 C23.07 1.71, 29.62 -0.98, 32.98 -3.14 M18.07 4.29 C23.13 1.54, 28.8 -1.09, 32.98 -3.14" stroke="#1e1e1e" stroke-width="2" fill="none"></path></g><g transform="translate(176.1863852786696 172.13556472575965) rotate(0 16.61229448095196 -1.3029304174206118)"><path d="M16.78 -7.04 C22.26 -5.39, 29.3 -3.87, 32.98 -3.14 M16.78 -7.04 C22.32 -5.75, 28.45 -4.35, 32.98 -3.14" stroke="#1e1e1e" stroke-width="2" fill="none"></path></g></g><mask></mask><g stroke-linecap="round" transform="translate(509.6495786435971 146.72850856571768) rotate(0 87.62171644006526 17.5)"><path d="M8.75 0 C65.65 -0.29, 125.6 -2.16, 166.49 0 M8.75 0 C58.44 -0.19, 107.76 -0.05, 166.49 0 M166.49 0 C171.17 -1.23, 175.81 1.78, 175.24 8.75 M166.49 0 C173.61 0.09, 174.09 0.83, 175.24 8.75 M175.24 8.75 C176.4 11.85, 174.52 17.9, 175.24 26.25 M175.24 8.75 C174.82 15.52, 174.46 21.9, 175.24 26.25 M175.24 26.25 C176.63 32.17, 173.07 35.25, 166.49 35 M175.24 26.25 C173 30.19, 170.47 36.97, 166.49 35 M166.49 35 C126.46 34.03, 84.59 33.42, 8.75 35 M166.49 35 C126.59 35.85, 86.41 36.22, 8.75 35 M8.75 35 C2.22 34.84, 0.77 31.84, 0 26.25 M8.75 35 C2.71 36.46, -0.72 32.1, 0 26.25 M0 26.25 C-0.6 19.52, -0.93 15.24, 0 8.75 M0 26.25 C-0.59 21.91, -0.63 16.01, 0 8.75 M0 8.75 C-1.22 1.98, 2.25 -0.97, 8.75 0 M0 8.75 C1.59 2.16, 3.99 0.82, 8.75 0" stroke="#1e1e1e" stroke-width="2" fill="none"></path></g><g transform="translate(527.9513411652056 151.72850856571768) rotate(0 69.31995391845703 12.5)"><text x="69.31995391845703" y="0" font-family="Virgil, Segoe UI Emoji" font-size="20px" fill="#1e1e1e" text-anchor="middle" style="white-space: pre;" direction="ltr" dominant-baseline="text-before-edge">brake with n%</text></g><g mask="url(#mask-HbmuJRwZOj_iBLj4suvBk)" stroke-linecap="round"><g transform="translate(398.0608166340603 177.0387314352538) rotate(0 51.23416182079268 -3.9838870016847068)"><path d="M0.3 0.97 C7.02 -0.27, 22.41 -5.21, 39.61 -6.89 C56.81 -8.58, 92.85 -9.13, 103.51 -9.14 M-1 0.44 C6.14 -0.72, 24.39 -4.24, 41.77 -5.72 C59.15 -7.19, 93.46 -7.9, 103.3 -8.44" stroke="#1e1e1e" stroke-width="2" fill="none"></path></g><g transform="translate(398.0608166340603 177.0387314352538) rotate(0 51.23416182079268 -3.9838870016847068)"><path d="M80.15 1 C87.31 -3.09, 90.13 -1.87, 103.3 -8.44 M80.15 1 C84.79 -0.97, 90.13 -3.59, 103.3 -8.44" stroke="#1e1e1e" stroke-width="2" fill="none"></path></g><g transform="translate(398.0608166340603 177.0387314352538) rotate(0 51.23416182079268 -3.9838870016847068)"><path d="M79.5 -16.09 C86.9 -16.06, 89.88 -10.71, 103.3 -8.44 M79.5 -16.09 C84.43 -14.6, 89.9 -13.77, 103.3 -8.44" stroke="#1e1e1e" stroke-width="2" fill="none"></path></g></g><mask id="mask-HbmuJRwZOj_iBLj4suvBk"><rect x="0" y="0" fill="#fff" width="600.5291402756459" height="285.00650543862287"></rect><rect x="423.1358519795722" y="158.33265915966967" fill="#000" width="31.179962158203125" height="25" opacity="1"></rect></mask><g transform="translate(423.1358519795722 158.33265915966967) rotate(0 26.183841796852448 14.622722763254387)"><text x="15.589981079101562" y="0" font-family="Virgil, Segoe UI Emoji" font-size="20px" fill="#1e1e1e" text-anchor="middle" style="white-space: pre;" direction="ltr" dominant-baseline="text-before-edge">yes</text></g><g stroke-linecap="round" transform="translate(738.5972324085928 97.61999944522358) rotate(0 74.11696171452513 62.71432580450801)"><path d="M93.75 15.75 C102.64 23.19, 111.6 31.56, 129.48 47.25 M93.75 15.75 C102.98 23.92, 110.66 31.29, 129.48 47.25 M129.48 47.25 C148.08 64.34, 149.69 64.34, 129.48 78.75 M129.48 47.25 C147.77 62.07, 147.02 64.98, 129.48 78.75 M129.48 78.75 C119.12 85.83, 111.86 94.89, 93.75 109.68 M129.48 78.75 C120.45 87.01, 109.87 95.34, 93.75 109.68 M93.75 109.68 C75.88 126.12, 75.91 125.17, 56.25 109.68 M93.75 109.68 C76.44 124.13, 74 125.69, 56.25 109.68 M56.25 109.68 C44.59 99.9, 30.3 89.48, 18.75 78.75 M56.25 109.68 C45.65 99.51, 33.59 91.31, 18.75 78.75 M18.75 78.75 C-1.57 64.35, 0.21 62.3, 18.75 47.25 M18.75 78.75 C-0.08 63.36, 0.15 64.3, 18.75 47.25 M18.75 47.25 C27.99 41.37, 35.85 34.32, 56.25 15.75 M18.75 47.25 C27.73 39.68, 38.87 31.47, 56.25 15.75 M56.25 15.75 C73.73 0.31, 74.22 0.24, 93.75 15.75 M56.25 15.75 C76.58 -1.42, 77.07 -1.81, 93.75 15.75" stroke="#1e1e1e" stroke-width="2" fill="none"></path></g><g transform="translate(780.8357440886093 135.47716234747804) rotate(0 31.819969177246094 25)"><text x="31.819969177246094" y="0" font-family="Virgil, Segoe UI Emoji" font-size="20px" fill="#1e1e1e" text-anchor="middle" style="white-space: pre;" direction="ltr" dominant-baseline="text-before-edge">locked</text><text x="31.819969177246094" y="25" font-family="Virgil, Segoe UI Emoji" font-size="20px" fill="#1e1e1e" text-anchor="middle" style="white-space: pre;" direction="ltr" dominant-baseline="text-before-edge">brakes</text></g><g stroke-linecap="round"><g transform="translate(694.1871276915331 166.03563175803447) rotate(0 17.403983468837623 -1.800406556987582)"><path d="M0.16 0.47 C6.02 -0.17, 29.08 -2.65, 34.94 -3.39 M-0.42 0.23 C5.4 -0.6, 28.63 -3.61, 34.57 -4.25" stroke="#1e1e1e" stroke-width="2" fill="none"></path></g><g transform="translate(694.1871276915331 166.03563175803447) rotate(0 17.403983468837623 -1.800406556987582)"><path d="M18.96 3.66 C23.64 1.83, 27.2 0.45, 34.57 -4.25 M18.96 3.66 C22.32 1.65, 25.74 0.52, 34.57 -4.25" stroke="#1e1e1e" stroke-width="2" fill="none"></path></g><g transform="translate(694.1871276915331 166.03563175803447) rotate(0 17.403983468837623 -1.800406556987582)"><path d="M17.53 -8.23 C22.62 -7.04, 26.54 -5.4, 34.57 -4.25 M17.53 -8.23 C21.21 -7.52, 24.96 -5.94, 34.57 -4.25" stroke="#1e1e1e" stroke-width="2" fill="none"></path></g></g><mask></mask><g stroke-linecap="round" transform="translate(299.2969336199303 10) rotate(0 142.53252534710145 17.5)"><path d="M8.75 0 C96 0.7, 181.96 1.77, 276.32 0 M8.75 0 C96.65 -0.18, 183.53 0.74, 276.32 0 M276.32 0 C282.39 1.8, 284.1 4.5, 285.07 8.75 M276.32 0 C280.97 2.22, 285.31 2.84, 285.07 8.75 M285.07 8.75 C285.91 13.57, 286.27 14.23, 285.07 26.25 M285.07 8.75 C285.71 14.58, 285.42 20.76, 285.07 26.25 M285.07 26.25 C284.88 32.77, 284.03 34.45, 276.32 35 M285.07 26.25 C283.56 30.27, 282.7 35.6, 276.32 35 M276.32 35 C209.74 36.39, 145.74 37.49, 8.75 35 M276.32 35 C221.6 34.97, 166.69 35.3, 8.75 35 M8.75 35 C4.21 33.76, 0.57 33.57, 0 26.25 M8.75 35 C1.25 35.38, 0.31 31.28, 0 26.25 M0 26.25 C-1.1 23.73, -0.16 17.63, 0 8.75 M0 26.25 C-0.56 19.89, 0.69 14.55, 0 8.75 M0 8.75 C-0.88 0.97, 3.58 -0.54, 8.75 0 M0 8.75 C-0.6 4, 3.08 -1.37, 8.75 0" stroke="#1e1e1e" stroke-width="2" fill="none"></path></g><g transform="translate(400.5294940622466 15) rotate(0 41.299964904785156 12.5)"><text x="41.299964904785156" y="0" font-family="Virgil, Segoe UI Emoji" font-size="20px" fill="#1e1e1e" text-anchor="middle" style="white-space: pre;" direction="ltr" dominant-baseline="text-before-edge">reduce n</text></g><g stroke-linecap="round" transform="translate(283.39331565756174 311.77288974401927) rotate(0 142.53252534710145 17.5)"><path d="M8.75 0 C113.56 2.13, 220.71 2.31, 276.32 0 M8.75 0 C98.2 1.33, 188 1.94, 276.32 0 M276.32 0 C282.17 1.35, 285.2 3.62, 285.07 8.75 M276.32 0 C280.85 2, 283.84 2.38, 285.07 8.75 M285.07 8.75 C283.36 14.13, 286.24 21.16, 285.07 26.25 M285.07 8.75 C285.53 14.46, 284.28 20.97, 285.07 26.25 M285.07 26.25 C284.41 32.35, 283.41 35.26, 276.32 35 M285.07 26.25 C285.37 30.07, 279.95 32.83, 276.32 35 M276.32 35 C184.25 33.52, 91.28 33.67, 8.75 35 M276.32 35 C187.69 35.44, 98.58 35.82, 8.75 35 M8.75 35 C2.79 34.79, 1.83 33.72, 0 26.25 M8.75 35 C3.67 33.9, 2.2 32.05, 0 26.25 M0 26.25 C-1.63 19.69, 1.07 13.81, 0 8.75 M0 26.25 C0.89 19.15, -0.78 11.6, 0 8.75 M0 8.75 C0.15 2.29, 3.39 1.01, 8.75 0 M0 8.75 C-1.07 3.85, 0.69 -2.23, 8.75 0" stroke="#1e1e1e" stroke-width="2" fill="none"></path></g><g transform="translate(377.0358797619874 316.77288974401927) rotate(0 48.88996124267578 12.5)"><text x="48.88996124267578" y="0" font-family="Virgil, Segoe UI Emoji" font-size="20px" fill="#1e1e1e" text-anchor="middle" style="white-space: pre;" direction="ltr" dominant-baseline="text-before-edge">increase n</text></g><g mask="url(#mask-qljbVAzLcLPtASQsvj0oG)" stroke-linecap="round"><g transform="translate(766.2035731183191 117.42454025231928) rotate(0 -84.3192731685906 -42.009593165624665)"><path d="M1.11 -0.82 C-27.15 -14.66, -140.8 -70.29, -168.99 -84.15 M0.24 1.36 C-28.26 -12.18, -142.01 -68.68, -170.12 -82.68" stroke="#1e1e1e" stroke-width="2" fill="none"></path></g><g transform="translate(766.2035731183191 117.42454025231928) rotate(0 -84.3192731685906 -42.009593165624665)"><path d="M-145.27 -79.88 C-155.27 -81.21, -162.77 -80.5, -170.12 -82.68 M-145.27 -79.88 C-153.23 -81.23, -161 -82.34, -170.12 -82.68" stroke="#1e1e1e" stroke-width="2" fill="none"></path></g><g transform="translate(766.2035731183191 117.42454025231928) rotate(0 -84.3192731685906 -42.009593165624665)"><path d="M-152.88 -64.57 C-160.08 -71.3, -164.94 -75.92, -170.12 -82.68 M-152.88 -64.57 C-158.52 -70.51, -163.98 -76.26, -170.12 -82.68" stroke="#1e1e1e" stroke-width="2" fill="none"></path></g></g><mask id="mask-qljbVAzLcLPtASQsvj0oG"><rect x="0" y="0" fill="#fff" width="1034.8421194555003" height="301.44372658356906"></rect><rect x="666.2943188706267" y="62.914947086695065" fill="#000" width="31.179962158203125" height="25" opacity="1"></rect></mask><g transform="translate(666.2943188706267 62.914947086695065) rotate(0 15.40815241849532 13.116456121666488)"><text x="15.589981079101562" y="0" font-family="Virgil, Segoe UI Emoji" font-size="20px" fill="#1e1e1e" text-anchor="middle" style="white-space: pre;" direction="ltr" dominant-baseline="text-before-edge">yes</text></g><g stroke-linecap="round"><g transform="translate(291.49513371729927 31.604947364082363) rotate(0 -86.41973222280149 56.11281601771134)"><path d="M0.7 -0.59 C-27.9 18.11, -143.06 93.35, -171.81 112 M-0.39 1.71 C-29.05 20.62, -143.61 95.01, -172.22 113.42" stroke="#1e1e1e" stroke-width="2" fill="none"></path></g><g transform="translate(291.49513371729927 31.604947364082363) rotate(0 -86.41973222280149 56.11281601771134)"><path d="M-157.14 93.48 C-162.45 100.97, -166.15 106.65, -172.22 113.42 M-157.14 93.48 C-160.26 98.86, -163.94 101.92, -172.22 113.42" stroke="#1e1e1e" stroke-width="2" fill="none"></path></g><g transform="translate(291.49513371729927 31.604947364082363) rotate(0 -86.41973222280149 56.11281601771134)"><path d="M-147.85 107.83 C-155.79 111.29, -162.13 112.88, -172.22 113.42 M-147.85 107.83 C-152.95 109.97, -158.71 109.8, -172.22 113.42" stroke="#1e1e1e" stroke-width="2" fill="none"></path></g></g><mask></mask><g mask="url(#mask-5bm_y9I5pW5l46VmxZOzL)" stroke-linecap="round"><g transform="translate(773.4694645631121 208.69973104901965) rotate(0 -96.35414668147655 60.592009844237054)"><path d="M-0.24 -1.07 C-32.48 19.24, -160.52 101.72, -192.41 121.93 M-1.83 0.98 C-34.29 20.95, -161.54 100.2, -193.2 120.19" stroke="#1e1e1e" stroke-width="2" fill="none"></path></g><g transform="translate(773.4694645631121 208.69973104901965) rotate(0 -96.35414668147655 60.592009844237054)"><path d="M-177.83 100.48 C-185.52 108.53, -188.42 117.45, -193.2 120.19 M-177.83 100.48 C-181.38 104, -184.97 108.97, -193.2 120.19" stroke="#1e1e1e" stroke-width="2" fill="none"></path></g><g transform="translate(773.4694645631121 208.69973104901965) rotate(0 -96.35414668147655 60.592009844237054)"><path d="M-168.75 114.97 C-179.95 117.43, -186.34 120.76, -193.2 120.19 M-168.75 114.97 C-174.2 115.31, -179.74 117.16, -193.2 120.19" stroke="#1e1e1e" stroke-width="2" fill="none"></path></g></g><mask id="mask-5bm_y9I5pW5l46VmxZOzL"><rect x="0" y="0" fill="#fff" width="1066.1777579260652" height="429.88375073749376"></rect><rect x="666.9053264265576" y="256.79174089325625" fill="#000" width="20.41998291015625" height="25" opacity="1"></rect></mask><g transform="translate(666.9053264265576 256.79174089325625) rotate(0 9.841075323582572 12.336089871824242)"><text x="10.209991455078125" y="0" font-family="Virgil, Segoe UI Emoji" font-size="20px" fill="#1e1e1e" text-anchor="middle" style="white-space: pre;" direction="ltr" dominant-baseline="text-before-edge">no</text></g><g stroke-linecap="round"><g transform="translate(275.2914518110015 334.6741323083925) rotate(0 -105.92418619255591 -67.21535364368174)"><path d="M0.52 -0.61 C-21.14 -8.35, -93.95 -23.5, -129.48 -45.73 C-165.02 -67.97, -198.93 -119.26, -212.67 -134.03 M-0.66 1.69 C-22.46 -5.92, -95.12 -21.29, -130.04 -44.26 C-164.96 -67.23, -196.6 -121.34, -210.21 -136.16" stroke="#1e1e1e" stroke-width="2" fill="none"></path></g><g transform="translate(275.2914518110015 334.6741323083925) rotate(0 -105.92418619255591 -67.21535364368174)"><path d="M-189.2 -122.61 C-197.44 -125.88, -203.78 -133.11, -210.21 -136.16 M-189.2 -122.61 C-195.82 -127.4, -202.83 -131.76, -210.21 -136.16" stroke="#1e1e1e" stroke-width="2" fill="none"></path></g><g transform="translate(275.2914518110015 334.6741323083925) rotate(0 -105.92418619255591 -67.21535364368174)"><path d="M-202.83 -112.27 C-206.5 -119.12, -208.2 -129.87, -210.21 -136.16 M-202.83 -112.27 C-204.89 -120.52, -207.36 -128.33, -210.21 -136.16" stroke="#1e1e1e" stroke-width="2" fill="none"></path></g></g><mask></mask></svg>